<svg width="512" height="512" viewBox="0 0 512 512" fill="none" xmlns="http://www.w3.org/2000/svg">
  <rect width="512" height="512" rx="64" fill="#2563eb"/>
  <path d="M128 256C128 185.307 185.307 128 256 128C326.693 128 384 185.307 384 256C384 326.693 326.693 384 256 384C185.307 384 128 326.693 128 256Z" fill="white"/>
  <path d="M256 192C288.4 192 315.52 212.48 323.84 240H352C339.52 195.84 302.08 160 256 160C209.92 160 172.48 195.84 160 240H188.16C196.48 212.48 223.6 192 256 192Z" fill="#2563eb"/>
  <path d="M256 320C223.6 320 196.48 299.52 188.16 272H160C172.48 316.16 209.92 352 256 352C302.08 352 339.52 316.16 352 272H323.84C315.52 299.52 288.4 320 256 320Z" fill="#2563eb"/>
  <circle cx="256" cy="256" r="24" fill="#2563eb"/>
  <path d="M256 288L272 304L256 320L240 304L256 288Z" fill="#10b981"/>
  <path d="M288 256L304 240L320 256L304 272L288 256Z" fill="#10b981"/>
  <path d="M224 256L208 240L192 256L208 272L224 256Z" fill="#10b981"/>
  <path d="M256 224L240 208L256 192L272 208L256 224Z" fill="#10b981"/>
  <text x="256" y="450" text-anchor="middle" fill="white" font-family="Arial, sans-serif" font-size="36" font-weight="bold">NaviMED</text>
  <text x="256" y="480" text-anchor="middle" fill="#93c5fd" font-family="Arial, sans-serif" font-size="24">Patient App</text>
</svg>
